# xmcd CD database file
#
# Track frame offsets:
#	150
#	24210
#	38325
#	55240
#	71495
#	92217
#	114475
#	133762
#	143120
#	163225
#	181397
#
# Disc length: 2745 seconds
#
# Revision: 0
# Processed by: cddbd v1.5PL3 Copyright (c) Steve Scherf et al.
# Submitted via: CDex 1.51
#
DISCID=910ab70b
DTITLE=太田貴子 - Here, There and Nowhere
DYEAR=1988
DGENRE=J-Pop
TTITLE0=1988-From Tokyo
TTITLE1=Action!
TTITLE2=Runaway Kids
TTITLE3=のっぽのジョンとトゥインクル・スター
TTITLE4=After Hours
TTITLE5=GET ENOUGH
TTITLE6=Nowhere Girl
TTITLE7=Stray Planet
TTITLE8=ビートに抱かれて
TTITLE9=Bad Boy
TTITLE10=Guitar Boy(in the rain)
EXTD=YEAR: 1988
EXTT0=
EXTT1=
EXTT2=
EXTT3=
EXTT4=
EXTT5=
EXTT6=
EXTT7=
EXTT8=
EXTT9=
EXTT10=
PLAYORDER=
